<svg width="25" height="31" viewBox="0 0 25 31" fill="none" xmlns="http://www.w3.org/2000/svg">
<path d="M24.9109 0.660309C24.8745 0.578956 24.8154 0.509938 24.7406 0.461665C24.6658 0.413392 24.5786 0.387949 24.4897 0.388435H11.4518C11.3735 0.388565 11.2965 0.408374 11.2278 0.446045C11.1592 0.483717 11.101 0.538047 11.0587 0.604059L1.03469 16.5415C0.986428 16.6109 0.958232 16.6923 0.953206 16.7768C0.94818 16.8612 0.966519 16.9454 1.0062 17.02C1.04589 17.0947 1.10537 17.1569 1.17811 17.1998C1.25084 17.2428 1.334 17.2648 1.41843 17.2634H8.59719L2.26079 29.6853C2.22441 29.7592 2.20731 29.8411 2.21109 29.9234C2.21486 30.0056 2.23939 30.0856 2.28239 30.1558C2.32538 30.226 2.38544 30.2842 2.45695 30.3249C2.52846 30.3656 2.60909 30.3874 2.69132 30.3884H5.49918C5.56414 30.3889 5.62847 30.3757 5.6881 30.3499C5.74772 30.3241 5.80132 30.2861 5.84549 30.2384L22.2902 12.4353C22.3555 12.3686 22.3994 12.284 22.4163 12.1922C22.4333 12.1003 22.4224 12.0055 22.3852 11.9199C22.348 11.8343 22.2861 11.7618 22.2075 11.7116C22.1289 11.6615 22.0371 11.636 21.9439 11.6384H15.6356L24.836 1.15718C24.8953 1.0906 24.934 1.00815 24.9473 0.919911C24.9606 0.831672 24.9479 0.741465 24.9109 0.660309Z" fill="#2B788B"/>
</svg>
